<mxfile host="65bd71144e">
    <diagram id="IRkSX6X0YVcaBr5EC7AD" name="Page-1">
        <mxGraphModel dx="525" dy="470" grid="1" gridSize="10" guides="1" tooltips="1" connect="1" arrows="1" fold="1" page="1" pageScale="1" pageWidth="850" pageHeight="1100" math="0" shadow="0">
            <root>
                <mxCell id="0"/>
                <mxCell id="1" parent="0"/>
                <mxCell id="3" value="&lt;font style=&quot;font-size: 18px&quot;&gt;Logo&lt;/font&gt;" style="ellipse;shape=doubleEllipse;whiteSpace=wrap;html=1;aspect=fixed;" parent="1" vertex="1">
                    <mxGeometry x="20" y="30" width="80" height="80" as="geometry"/>
                </mxCell>
                <mxCell id="11" value="Layer 1" style="strokeWidth=1;shadow=0;dashed=0;align=center;html=1;shape=mxgraph.mockup.navigation.anchor;fontSize=17;fontColor=#666666;fontStyle=1;" parent="1" vertex="1">
                    <mxGeometry x="20" y="150" width="60" height="30" as="geometry"/>
                </mxCell>
                <mxCell id="12" value="&gt;" style="strokeWidth=1;shadow=0;dashed=0;align=center;html=1;shape=mxgraph.mockup.navigation.anchor;fontSize=24;fontColor=#aaaaaa;fontStyle=1;" parent="1" vertex="1">
                    <mxGeometry x="80" y="150" width="20" height="30" as="geometry"/>
                </mxCell>
                <mxCell id="13" value="Layer 2" style="strokeWidth=1;shadow=0;dashed=0;align=center;html=1;shape=mxgraph.mockup.navigation.anchor;fontSize=17;fontColor=#666666;fontStyle=1;" parent="1" vertex="1">
                    <mxGeometry x="100" y="150" width="60" height="30" as="geometry"/>
                </mxCell>
                <mxCell id="14" value="&gt;" style="strokeWidth=1;shadow=0;dashed=0;align=center;html=1;shape=mxgraph.mockup.navigation.anchor;fontSize=24;fontColor=#aaaaaa;fontStyle=1;" parent="1" vertex="1">
                    <mxGeometry x="160" y="150" width="20" height="30" as="geometry"/>
                </mxCell>
                <mxCell id="15" value="Layer 3" style="strokeWidth=1;shadow=0;dashed=0;align=center;html=1;shape=mxgraph.mockup.navigation.anchor;fontSize=17;fontColor=#666666;fontStyle=1;" parent="1" vertex="1">
                    <mxGeometry x="180" y="150" width="60" height="30" as="geometry"/>
                </mxCell>
                <mxCell id="16" value="&gt;" style="strokeWidth=1;shadow=0;dashed=0;align=center;html=1;shape=mxgraph.mockup.navigation.anchor;fontSize=24;fontColor=#aaaaaa;fontStyle=1;" parent="1" vertex="1">
                    <mxGeometry x="240" y="150" width="20" height="30" as="geometry"/>
                </mxCell>
                <mxCell id="17" value="Layer 4" style="strokeWidth=1;shadow=0;dashed=0;align=center;html=1;shape=mxgraph.mockup.navigation.anchor;fontSize=17;fontColor=#008cff;fontStyle=1;" parent="1" vertex="1">
                    <mxGeometry x="260" y="150" width="60" height="30" as="geometry"/>
                </mxCell>
                <mxCell id="18" value="search" style="strokeWidth=1;shadow=0;dashed=0;align=center;html=1;shape=mxgraph.mockup.text.textBox;fontColor=#666666;align=left;fontSize=17;spacingLeft=4;spacingTop=-3;strokeColor=#666666;mainText=" parent="1" vertex="1">
                    <mxGeometry x="380" y="55" width="150" height="30" as="geometry"/>
                </mxCell>
                <mxCell id="19" value="&lt;font size=&quot;3&quot;&gt;Thông tin nhân viên 1&lt;/font&gt;" style="rounded=1;whiteSpace=wrap;html=1;fontSize=18;" parent="1" vertex="1">
                    <mxGeometry x="20" y="220" width="120" height="110" as="geometry"/>
                </mxCell>
                <mxCell id="20" value="&lt;font size=&quot;3&quot;&gt;Thông tin nhân viên 2&lt;/font&gt;" style="rounded=1;whiteSpace=wrap;html=1;fontSize=18;" parent="1" vertex="1">
                    <mxGeometry x="160" y="220" width="120" height="110" as="geometry"/>
                </mxCell>
                <mxCell id="21" value="&lt;font size=&quot;3&quot;&gt;Thông tin nhân viên 3&lt;/font&gt;" style="rounded=1;whiteSpace=wrap;html=1;fontSize=18;" parent="1" vertex="1">
                    <mxGeometry x="300" y="220" width="120" height="110" as="geometry"/>
                </mxCell>
                <mxCell id="22" value="&lt;font size=&quot;3&quot;&gt;Thông tin nhân viên 4&lt;/font&gt;" style="rounded=1;whiteSpace=wrap;html=1;fontSize=18;" parent="1" vertex="1">
                    <mxGeometry x="440" y="220" width="120" height="110" as="geometry"/>
                </mxCell>
                <mxCell id="23" value="&lt;font size=&quot;3&quot;&gt;Thông tin nhân viên 1&lt;/font&gt;" style="rounded=1;whiteSpace=wrap;html=1;fontSize=18;" parent="1" vertex="1">
                    <mxGeometry x="20" y="370" width="120" height="119" as="geometry"/>
                </mxCell>
                <mxCell id="24" value="&lt;font size=&quot;3&quot;&gt;Thông tin nhân viên 2&lt;/font&gt;" style="rounded=1;whiteSpace=wrap;html=1;fontSize=18;" parent="1" vertex="1">
                    <mxGeometry x="160" y="370" width="120" height="119" as="geometry"/>
                </mxCell>
                <mxCell id="25" value="&lt;font size=&quot;3&quot;&gt;Thông tin nhân viên 3&lt;/font&gt;" style="rounded=1;whiteSpace=wrap;html=1;fontSize=18;" parent="1" vertex="1">
                    <mxGeometry x="300" y="370" width="120" height="119" as="geometry"/>
                </mxCell>
                <mxCell id="26" value="&lt;font size=&quot;3&quot;&gt;Thông tin nhân viên 4&lt;/font&gt;" style="rounded=1;whiteSpace=wrap;html=1;fontSize=18;" parent="1" vertex="1">
                    <mxGeometry x="440" y="370" width="120" height="119" as="geometry"/>
                </mxCell>
                <mxCell id="27" value="&lt;font size=&quot;3&quot;&gt;Thông tin nhân viên 1&lt;/font&gt;" style="rounded=1;whiteSpace=wrap;html=1;fontSize=18;" parent="1" vertex="1">
                    <mxGeometry x="20" y="530" width="120" height="110" as="geometry"/>
                </mxCell>
                <mxCell id="28" value="&lt;font size=&quot;3&quot;&gt;Thông tin nhân viên 2&lt;/font&gt;" style="rounded=1;whiteSpace=wrap;html=1;fontSize=18;" parent="1" vertex="1">
                    <mxGeometry x="160" y="530" width="120" height="110" as="geometry"/>
                </mxCell>
                <mxCell id="29" value="&lt;font size=&quot;3&quot;&gt;Thông tin nhân viên 3&lt;/font&gt;" style="rounded=1;whiteSpace=wrap;html=1;fontSize=18;" parent="1" vertex="1">
                    <mxGeometry x="300" y="530" width="120" height="110" as="geometry"/>
                </mxCell>
                <mxCell id="30" value="&lt;font size=&quot;3&quot;&gt;Thông tin nhân viên 4&lt;/font&gt;" style="rounded=1;whiteSpace=wrap;html=1;fontSize=18;" parent="1" vertex="1">
                    <mxGeometry x="440" y="530" width="120" height="110" as="geometry"/>
                </mxCell>
            </root>
        </mxGraphModel>
    </diagram>
</mxfile>